<svg width="196" height="131" viewBox="0 0 196 131" fill="none" xmlns="http://www.w3.org/2000/svg">
<g clip-path="url(#clip0_1_3)">
<path d="M101.68 57.01C102.24 56.58 102.52 56.71 102.52 57.43V57.68C102.79 56.09 102.97 54.76 103.04 54.21C103.04 54.17 103.05 54.13 103.05 54.1C103.2 51.7 102.97 49.29 101.31 47.94C95.73 43.38 85.52 40.35 79.03 39.36C75.41 38.81 72.38 39.83 69.92 42.43C68.57 43.85 66.98 46.06 65.9 47.71C64.04 50.55 62.5 53.29 59.92 56.98C53.64 65.95 44.2 76.15 34.67 85.56C17.99 102.04 1 116.09 0.05 116.87C0.02 116.89 0.01 116.9 0.01 116.9C0 116.9 0 116.91 0 116.93C0 116.94 0.01 116.94 0.03 116.94C19.96 108.55 39.12 98.83 57.52 87.79C57.72 87.66 62 84.85 62.98 84.5L87.34 67.98L101.68 57.01Z" fill="#7B49FE"/>
<path d="M101.68 61.78C102.02 60.42 102.3 58.96 102.52 57.68V57.43C102.52 56.71 102.24 56.58 101.68 57.01L87.34 67.98L62.98 84.5C59.1 92.72 54.05 102.05 47.82 112.51C45.54 116.33 46.27 119.62 50.02 122.41C64.22 113.39 77.58 103.1 90.12 91.57C94.81 81.82 98.66 71.89 101.68 61.78Z" fill="#1D04E7"/>
<path d="M115.72 29.57L140.58 38.24C124.47 57.86 90.35 91.65 90.12 91.57C77.58 103.1 64.22 113.39 50.02 122.41C55.64 126.3 62.25 128.85 69.81 130.04C75.43 130.82 84.9 131.43 91.2 127.88C96.32 124.97 103.08 120.13 111.46 113.37C131.55 97.13 169.37 60.46 169.37 60.46L182.31 84.64L195.91 0L115.72 29.57Z" fill="#7B49FE"/>
</g>
<defs>
<clipPath id="clip0_1_3">
<rect width="195.91" height="130.64" fill="white"/>
</clipPath>
</defs>
</svg>
